<?xml version="1.0" encoding="utf-8" standalone="no"?>
        <!DOCTYPE svg PUBLIC "-//W3C//DTD SVG 1.1//EN"
                "http://www.w3.org/Graphics/SVG/1.1/DTD/svg11.dtd">
<svg height="50pt" version="1.1" viewBox="0 0 547.8 265.261938" width="100pt" xmlns="http://www.w3.org/2000/svg" xmlns:xlink="http://www.w3.org/1999/xlink">
    <metadata>
        <rdf:RDF xmlns:cc="http://creativecommons.org/ns#" xmlns:dc="http://purl.org/dc/elements/1.1/" xmlns:rdf="http://www.w3.org/1999/02/22-rdf-syntax-ns#">
            <cc:Work>
                <dc:type rdf:resource="http://purl.org/dc/dcmitype/StillImage"/>
                <dc:date>2023-04-14T08:42:22.785366</dc:date>
                <dc:format>image/svg+xml</dc:format>
                <dc:creator>
                    <cc:Agent>
                        <dc:title>Matplotlib v3.4.2, https://matplotlib.org/</dc:title>
                    </cc:Agent>
                </dc:creator>
            </cc:Work>
        </rdf:RDF>
    </metadata>
    <defs>
        <style type="text/css">*{stroke-linecap:butt;stroke-linejoin:round;}</style>
    </defs>
    <g id="figure_1">
        <g id="patch_1">
            <path d="M 0 265.261938
L 547.8 265.261938
L 547.8 0
L 0 0
z
" style="fill:#ffffff;"/>
        </g>
        <g id="axes_1">
            <g id="patch_2">
                <path d="M 94.2 223.416
L 540.6 223.416
L 540.6 7.2
L 94.2 7.2
z
" style="fill:#ffffff;"/>
            </g>
            <g id="line2d_1">
                <path clip-path="url(#p919470fa06)" d="M 94.2 223.416
L 94.2 7.2
" style="fill:none;stroke:#999999;stroke-linecap:square;stroke-width:1.5;"/>
            </g>
            <g id="patch_3">
                <path clip-path="url(#p919470fa06)" d="M 94.2 203.3388
L 304.271886 203.3388
L 304.271886 181.7172
L 94.2 181.7172
z
" style="fill:#008bfb;"/>
            </g>
            <g id="patch_4">
                <path clip-path="url(#p919470fa06)" d="M 94.2 172.4508
L 317.436657 172.4508
L 317.436657 150.8292
L 94.2 150.8292
z
" style="fill:#008bfb;"/>
            </g>
            <g id="patch_5">
                <path clip-path="url(#p919470fa06)" d="M 94.2 141.5628
L 320.819018 141.5628
L 320.819018 119.9412
L 94.2 119.9412
z
" style="fill:#008bfb;"/>
            </g>
            <g id="patch_6">
                <path clip-path="url(#p919470fa06)" d="M 94.2 110.6748
L 371.39327 110.6748
L 371.39327 89.0532
L 94.2 89.0532
z
" style="fill:#008bfb;"/>
            </g>
            <g id="patch_7">
                <path clip-path="url(#p919470fa06)" d="M 94.2 79.7868
L 373.634589 79.7868
L 373.634589 58.1652
L 94.2 58.1652
z
" style="fill:#008bfb;"/>
            </g>
            <g id="patch_8">
                <path clip-path="url(#p919470fa06)" d="M 94.2 48.8988
L 519.342857 48.8988
L 519.342857 27.2772
L 94.2 27.2772
z
" style="fill:#008bfb;"/>
            </g>
            <g id="matplotlib.axis_1">
                <g id="xtick_1">
                    <g id="line2d_2">
                        <defs>
                            <path d="M 0 0
L 0 3.5
" id="m069ab99419" style="stroke:#333333;stroke-width:0.8;"/>
                        </defs>
                        <g>
                            <use style="fill:#333333;stroke:#333333;stroke-width:0.8;" x="94.2" xlink:href="#m069ab99419" y="223.416"/>
                        </g>
                    </g>
                    <g id="text_1">
                        <!-- 0.0 -->
                        <g style="fill:#333333;" transform="translate(85.453281 238.774281)scale(0.11 -0.11)">
                            <defs>
                                <path d="M 2034 4250
Q 1547 4250 1301 3770
Q 1056 3291 1056 2328
Q 1056 1369 1301 889
Q 1547 409 2034 409
Q 2525 409 2770 889
Q 3016 1369 3016 2328
Q 3016 3291 2770 3770
Q 2525 4250 2034 4250
z
M 2034 4750
Q 2819 4750 3233 4129
Q 3647 3509 3647 2328
Q 3647 1150 3233 529
Q 2819 -91 2034 -91
Q 1250 -91 836 529
Q 422 1150 422 2328
Q 422 3509 836 4129
Q 1250 4750 2034 4750
z
" id="DejaVuSans-30" transform="scale(0.015625)"/>
                                <path d="M 684 794
L 1344 794
L 1344 0
L 684 0
L 684 794
z
" id="DejaVuSans-2e" transform="scale(0.015625)"/>
                            </defs>
                            <use xlink:href="#DejaVuSans-30"/>
                            <use x="63.623047" xlink:href="#DejaVuSans-2e"/>
                            <use x="95.410156" xlink:href="#DejaVuSans-30"/>
                        </g>
                    </g>
                </g>
                <g id="xtick_2">
                    <g id="line2d_3">
                        <g>
                            <use style="fill:#333333;stroke:#333333;stroke-width:0.8;" x="191.056619" xlink:href="#m069ab99419" y="223.416"/>
                        </g>
                    </g>
                    <g id="text_2">
                        <!-- 0.1 -->
                        <g style="fill:#333333;" transform="translate(182.309901 238.774281)scale(0.11 -0.11)">
                            <defs>
                                <path d="M 794 531
L 1825 531
L 1825 4091
L 703 3866
L 703 4441
L 1819 4666
L 2450 4666
L 2450 531
L 3481 531
L 3481 0
L 794 0
L 794 531
z
" id="DejaVuSans-31" transform="scale(0.015625)"/>
                            </defs>
                            <use xlink:href="#DejaVuSans-30"/>
                            <use x="63.623047" xlink:href="#DejaVuSans-2e"/>
                            <use x="95.410156" xlink:href="#DejaVuSans-31"/>
                        </g>
                    </g>
                </g>
                <g id="xtick_3">
                    <g id="line2d_4">
                        <g>
                            <use style="fill:#333333;stroke:#333333;stroke-width:0.8;" x="287.913239" xlink:href="#m069ab99419" y="223.416"/>
                        </g>
                    </g>
                    <g id="text_3">
                        <!-- 0.2 -->
                        <g style="fill:#333333;" transform="translate(279.16652 238.774281)scale(0.11 -0.11)">
                            <defs>
                                <path d="M 1228 531
L 3431 531
L 3431 0
L 469 0
L 469 531
Q 828 903 1448 1529
Q 2069 2156 2228 2338
Q 2531 2678 2651 2914
Q 2772 3150 2772 3378
Q 2772 3750 2511 3984
Q 2250 4219 1831 4219
Q 1534 4219 1204 4116
Q 875 4013 500 3803
L 500 4441
Q 881 4594 1212 4672
Q 1544 4750 1819 4750
Q 2544 4750 2975 4387
Q 3406 4025 3406 3419
Q 3406 3131 3298 2873
Q 3191 2616 2906 2266
Q 2828 2175 2409 1742
Q 1991 1309 1228 531
z
" id="DejaVuSans-32" transform="scale(0.015625)"/>
                            </defs>
                            <use xlink:href="#DejaVuSans-30"/>
                            <use x="63.623047" xlink:href="#DejaVuSans-2e"/>
                            <use x="95.410156" xlink:href="#DejaVuSans-32"/>
                        </g>
                    </g>
                </g>
                <g id="xtick_4">
                    <g id="line2d_5">
                        <g>
                            <use style="fill:#333333;stroke:#333333;stroke-width:0.8;" x="384.769858" xlink:href="#m069ab99419" y="223.416"/>
                        </g>
                    </g>
                    <g id="text_4">
                        <!-- 0.3 -->
                        <g style="fill:#333333;" transform="translate(376.02314 238.774281)scale(0.11 -0.11)">
                            <defs>
                                <path d="M 2597 2516
Q 3050 2419 3304 2112
Q 3559 1806 3559 1356
Q 3559 666 3084 287
Q 2609 -91 1734 -91
Q 1441 -91 1130 -33
Q 819 25 488 141
L 488 750
Q 750 597 1062 519
Q 1375 441 1716 441
Q 2309 441 2620 675
Q 2931 909 2931 1356
Q 2931 1769 2642 2001
Q 2353 2234 1838 2234
L 1294 2234
L 1294 2753
L 1863 2753
Q 2328 2753 2575 2939
Q 2822 3125 2822 3475
Q 2822 3834 2567 4026
Q 2313 4219 1838 4219
Q 1578 4219 1281 4162
Q 984 4106 628 3988
L 628 4550
Q 988 4650 1302 4700
Q 1616 4750 1894 4750
Q 2613 4750 3031 4423
Q 3450 4097 3450 3541
Q 3450 3153 3228 2886
Q 3006 2619 2597 2516
z
" id="DejaVuSans-33" transform="scale(0.015625)"/>
                            </defs>
                            <use xlink:href="#DejaVuSans-30"/>
                            <use x="63.623047" xlink:href="#DejaVuSans-2e"/>
                            <use x="95.410156" xlink:href="#DejaVuSans-33"/>
                        </g>
                    </g>
                </g>
                <g id="xtick_5">
                    <g id="line2d_6">
                        <g>
                            <use style="fill:#333333;stroke:#333333;stroke-width:0.8;" x="481.626478" xlink:href="#m069ab99419" y="223.416"/>
                        </g>
                    </g>
                    <g id="text_5">
                        <!-- 0.4 -->
                        <g style="fill:#333333;" transform="translate(472.879759 238.774281)scale(0.11 -0.11)">
                            <defs>
                                <path d="M 2419 4116
L 825 1625
L 2419 1625
L 2419 4116
z
M 2253 4666
L 3047 4666
L 3047 1625
L 3713 1625
L 3713 1100
L 3047 1100
L 3047 0
L 2419 0
L 2419 1100
L 313 1100
L 313 1709
L 2253 4666
z
" id="DejaVuSans-34" transform="scale(0.015625)"/>
                            </defs>
                            <use xlink:href="#DejaVuSans-30"/>
                            <use x="63.623047" xlink:href="#DejaVuSans-2e"/>
                            <use x="95.410156" xlink:href="#DejaVuSans-34"/>
                        </g>
                    </g>
                </g>
                <g id="text_6">
                    <!-- mean(|SHAP value|) (average impact on model output magnitude) -->
                    <g transform="translate(100.930703 254.996781)scale(0.13 -0.13)">
                        <defs>
                            <path d="M 3328 2828
Q 3544 3216 3844 3400
Q 4144 3584 4550 3584
Q 5097 3584 5394 3201
Q 5691 2819 5691 2113
L 5691 0
L 5113 0
L 5113 2094
Q 5113 2597 4934 2840
Q 4756 3084 4391 3084
Q 3944 3084 3684 2787
Q 3425 2491 3425 1978
L 3425 0
L 2847 0
L 2847 2094
Q 2847 2600 2669 2842
Q 2491 3084 2119 3084
Q 1678 3084 1418 2786
Q 1159 2488 1159 1978
L 1159 0
L 581 0
L 581 3500
L 1159 3500
L 1159 2956
Q 1356 3278 1631 3431
Q 1906 3584 2284 3584
Q 2666 3584 2933 3390
Q 3200 3197 3328 2828
z
" id="DejaVuSans-6d" transform="scale(0.015625)"/>
                            <path d="M 3597 1894
L 3597 1613
L 953 1613
Q 991 1019 1311 708
Q 1631 397 2203 397
Q 2534 397 2845 478
Q 3156 559 3463 722
L 3463 178
Q 3153 47 2828 -22
Q 2503 -91 2169 -91
Q 1331 -91 842 396
Q 353 884 353 1716
Q 353 2575 817 3079
Q 1281 3584 2069 3584
Q 2775 3584 3186 3129
Q 3597 2675 3597 1894
z
M 3022 2063
Q 3016 2534 2758 2815
Q 2500 3097 2075 3097
Q 1594 3097 1305 2825
Q 1016 2553 972 2059
L 3022 2063
z
" id="DejaVuSans-65" transform="scale(0.015625)"/>
                            <path d="M 2194 1759
Q 1497 1759 1228 1600
Q 959 1441 959 1056
Q 959 750 1161 570
Q 1363 391 1709 391
Q 2188 391 2477 730
Q 2766 1069 2766 1631
L 2766 1759
L 2194 1759
z
M 3341 1997
L 3341 0
L 2766 0
L 2766 531
Q 2569 213 2275 61
Q 1981 -91 1556 -91
Q 1019 -91 701 211
Q 384 513 384 1019
Q 384 1609 779 1909
Q 1175 2209 1959 2209
L 2766 2209
L 2766 2266
Q 2766 2663 2505 2880
Q 2244 3097 1772 3097
Q 1472 3097 1187 3025
Q 903 2953 641 2809
L 641 3341
Q 956 3463 1253 3523
Q 1550 3584 1831 3584
Q 2591 3584 2966 3190
Q 3341 2797 3341 1997
z
" id="DejaVuSans-61" transform="scale(0.015625)"/>
                            <path d="M 3513 2113
L 3513 0
L 2938 0
L 2938 2094
Q 2938 2591 2744 2837
Q 2550 3084 2163 3084
Q 1697 3084 1428 2787
Q 1159 2491 1159 1978
L 1159 0
L 581 0
L 581 3500
L 1159 3500
L 1159 2956
Q 1366 3272 1645 3428
Q 1925 3584 2291 3584
Q 2894 3584 3203 3211
Q 3513 2838 3513 2113
z
" id="DejaVuSans-6e" transform="scale(0.015625)"/>
                            <path d="M 1984 4856
Q 1566 4138 1362 3434
Q 1159 2731 1159 2009
Q 1159 1288 1364 580
Q 1569 -128 1984 -844
L 1484 -844
Q 1016 -109 783 600
Q 550 1309 550 2009
Q 550 2706 781 3412
Q 1013 4119 1484 4856
L 1984 4856
z
" id="DejaVuSans-28" transform="scale(0.015625)"/>
                            <path d="M 1344 4891
L 1344 -1509
L 813 -1509
L 813 4891
L 1344 4891
z
" id="DejaVuSans-7c" transform="scale(0.015625)"/>
                            <path d="M 3425 4513
L 3425 3897
Q 3066 4069 2747 4153
Q 2428 4238 2131 4238
Q 1616 4238 1336 4038
Q 1056 3838 1056 3469
Q 1056 3159 1242 3001
Q 1428 2844 1947 2747
L 2328 2669
Q 3034 2534 3370 2195
Q 3706 1856 3706 1288
Q 3706 609 3251 259
Q 2797 -91 1919 -91
Q 1588 -91 1214 -16
Q 841 59 441 206
L 441 856
Q 825 641 1194 531
Q 1563 422 1919 422
Q 2459 422 2753 634
Q 3047 847 3047 1241
Q 3047 1584 2836 1778
Q 2625 1972 2144 2069
L 1759 2144
Q 1053 2284 737 2584
Q 422 2884 422 3419
Q 422 4038 858 4394
Q 1294 4750 2059 4750
Q 2388 4750 2728 4690
Q 3069 4631 3425 4513
z
" id="DejaVuSans-53" transform="scale(0.015625)"/>
                            <path d="M 628 4666
L 1259 4666
L 1259 2753
L 3553 2753
L 3553 4666
L 4184 4666
L 4184 0
L 3553 0
L 3553 2222
L 1259 2222
L 1259 0
L 628 0
L 628 4666
z
" id="DejaVuSans-48" transform="scale(0.015625)"/>
                            <path d="M 2188 4044
L 1331 1722
L 3047 1722
L 2188 4044
z
M 1831 4666
L 2547 4666
L 4325 0
L 3669 0
L 3244 1197
L 1141 1197
L 716 0
L 50 0
L 1831 4666
z
" id="DejaVuSans-41" transform="scale(0.015625)"/>
                            <path d="M 1259 4147
L 1259 2394
L 2053 2394
Q 2494 2394 2734 2622
Q 2975 2850 2975 3272
Q 2975 3691 2734 3919
Q 2494 4147 2053 4147
L 1259 4147
z
M 628 4666
L 2053 4666
Q 2838 4666 3239 4311
Q 3641 3956 3641 3272
Q 3641 2581 3239 2228
Q 2838 1875 2053 1875
L 1259 1875
L 1259 0
L 628 0
L 628 4666
z
" id="DejaVuSans-50" transform="scale(0.015625)"/>
                            <path id="DejaVuSans-20" transform="scale(0.015625)"/>
                            <path d="M 191 3500
L 800 3500
L 1894 563
L 2988 3500
L 3597 3500
L 2284 0
L 1503 0
L 191 3500
z
" id="DejaVuSans-76" transform="scale(0.015625)"/>
                            <path d="M 603 4863
L 1178 4863
L 1178 0
L 603 0
L 603 4863
z
" id="DejaVuSans-6c" transform="scale(0.015625)"/>
                            <path d="M 544 1381
L 544 3500
L 1119 3500
L 1119 1403
Q 1119 906 1312 657
Q 1506 409 1894 409
Q 2359 409 2629 706
Q 2900 1003 2900 1516
L 2900 3500
L 3475 3500
L 3475 0
L 2900 0
L 2900 538
Q 2691 219 2414 64
Q 2138 -91 1772 -91
Q 1169 -91 856 284
Q 544 659 544 1381
z
M 1991 3584
L 1991 3584
z
" id="DejaVuSans-75" transform="scale(0.015625)"/>
                            <path d="M 513 4856
L 1013 4856
Q 1481 4119 1714 3412
Q 1947 2706 1947 2009
Q 1947 1309 1714 600
Q 1481 -109 1013 -844
L 513 -844
Q 928 -128 1133 580
Q 1338 1288 1338 2009
Q 1338 2731 1133 3434
Q 928 4138 513 4856
z
" id="DejaVuSans-29" transform="scale(0.015625)"/>
                            <path d="M 2631 2963
Q 2534 3019 2420 3045
Q 2306 3072 2169 3072
Q 1681 3072 1420 2755
Q 1159 2438 1159 1844
L 1159 0
L 581 0
L 581 3500
L 1159 3500
L 1159 2956
Q 1341 3275 1631 3429
Q 1922 3584 2338 3584
Q 2397 3584 2469 3576
Q 2541 3569 2628 3553
L 2631 2963
z
" id="DejaVuSans-72" transform="scale(0.015625)"/>
                            <path d="M 2906 1791
Q 2906 2416 2648 2759
Q 2391 3103 1925 3103
Q 1463 3103 1205 2759
Q 947 2416 947 1791
Q 947 1169 1205 825
Q 1463 481 1925 481
Q 2391 481 2648 825
Q 2906 1169 2906 1791
z
M 3481 434
Q 3481 -459 3084 -895
Q 2688 -1331 1869 -1331
Q 1566 -1331 1297 -1286
Q 1028 -1241 775 -1147
L 775 -588
Q 1028 -725 1275 -790
Q 1522 -856 1778 -856
Q 2344 -856 2625 -561
Q 2906 -266 2906 331
L 2906 616
Q 2728 306 2450 153
Q 2172 0 1784 0
Q 1141 0 747 490
Q 353 981 353 1791
Q 353 2603 747 3093
Q 1141 3584 1784 3584
Q 2172 3584 2450 3431
Q 2728 3278 2906 2969
L 2906 3500
L 3481 3500
L 3481 434
z
" id="DejaVuSans-67" transform="scale(0.015625)"/>
                            <path d="M 603 3500
L 1178 3500
L 1178 0
L 603 0
L 603 3500
z
M 603 4863
L 1178 4863
L 1178 4134
L 603 4134
L 603 4863
z
" id="DejaVuSans-69" transform="scale(0.015625)"/>
                            <path d="M 1159 525
L 1159 -1331
L 581 -1331
L 581 3500
L 1159 3500
L 1159 2969
Q 1341 3281 1617 3432
Q 1894 3584 2278 3584
Q 2916 3584 3314 3078
Q 3713 2572 3713 1747
Q 3713 922 3314 415
Q 2916 -91 2278 -91
Q 1894 -91 1617 61
Q 1341 213 1159 525
z
M 3116 1747
Q 3116 2381 2855 2742
Q 2594 3103 2138 3103
Q 1681 3103 1420 2742
Q 1159 2381 1159 1747
Q 1159 1113 1420 752
Q 1681 391 2138 391
Q 2594 391 2855 752
Q 3116 1113 3116 1747
z
" id="DejaVuSans-70" transform="scale(0.015625)"/>
                            <path d="M 3122 3366
L 3122 2828
Q 2878 2963 2633 3030
Q 2388 3097 2138 3097
Q 1578 3097 1268 2742
Q 959 2388 959 1747
Q 959 1106 1268 751
Q 1578 397 2138 397
Q 2388 397 2633 464
Q 2878 531 3122 666
L 3122 134
Q 2881 22 2623 -34
Q 2366 -91 2075 -91
Q 1284 -91 818 406
Q 353 903 353 1747
Q 353 2603 823 3093
Q 1294 3584 2113 3584
Q 2378 3584 2631 3529
Q 2884 3475 3122 3366
z
" id="DejaVuSans-63" transform="scale(0.015625)"/>
                            <path d="M 1172 4494
L 1172 3500
L 2356 3500
L 2356 3053
L 1172 3053
L 1172 1153
Q 1172 725 1289 603
Q 1406 481 1766 481
L 2356 481
L 2356 0
L 1766 0
Q 1100 0 847 248
Q 594 497 594 1153
L 594 3053
L 172 3053
L 172 3500
L 594 3500
L 594 4494
L 1172 4494
z
" id="DejaVuSans-74" transform="scale(0.015625)"/>
                            <path d="M 1959 3097
Q 1497 3097 1228 2736
Q 959 2375 959 1747
Q 959 1119 1226 758
Q 1494 397 1959 397
Q 2419 397 2687 759
Q 2956 1122 2956 1747
Q 2956 2369 2687 2733
Q 2419 3097 1959 3097
z
M 1959 3584
Q 2709 3584 3137 3096
Q 3566 2609 3566 1747
Q 3566 888 3137 398
Q 2709 -91 1959 -91
Q 1206 -91 779 398
Q 353 888 353 1747
Q 353 2609 779 3096
Q 1206 3584 1959 3584
z
" id="DejaVuSans-6f" transform="scale(0.015625)"/>
                            <path d="M 2906 2969
L 2906 4863
L 3481 4863
L 3481 0
L 2906 0
L 2906 525
Q 2725 213 2448 61
Q 2172 -91 1784 -91
Q 1150 -91 751 415
Q 353 922 353 1747
Q 353 2572 751 3078
Q 1150 3584 1784 3584
Q 2172 3584 2448 3432
Q 2725 3281 2906 2969
z
M 947 1747
Q 947 1113 1208 752
Q 1469 391 1925 391
Q 2381 391 2643 752
Q 2906 1113 2906 1747
Q 2906 2381 2643 2742
Q 2381 3103 1925 3103
Q 1469 3103 1208 2742
Q 947 2381 947 1747
z
" id="DejaVuSans-64" transform="scale(0.015625)"/>
                        </defs>
                        <use xlink:href="#DejaVuSans-6d"/>
                        <use x="97.412109" xlink:href="#DejaVuSans-65"/>
                        <use x="158.935547" xlink:href="#DejaVuSans-61"/>
                        <use x="220.214844" xlink:href="#DejaVuSans-6e"/>
                        <use x="283.59375" xlink:href="#DejaVuSans-28"/>
                        <use x="322.607422" xlink:href="#DejaVuSans-7c"/>
                        <use x="356.298828" xlink:href="#DejaVuSans-53"/>
                        <use x="419.775391" xlink:href="#DejaVuSans-48"/>
                        <use x="494.970703" xlink:href="#DejaVuSans-41"/>
                        <use x="563.378906" xlink:href="#DejaVuSans-50"/>
                        <use x="623.681641" xlink:href="#DejaVuSans-20"/>
                        <use x="655.46875" xlink:href="#DejaVuSans-76"/>
                        <use x="714.648438" xlink:href="#DejaVuSans-61"/>
                        <use x="775.927734" xlink:href="#DejaVuSans-6c"/>
                        <use x="803.710938" xlink:href="#DejaVuSans-75"/>
                        <use x="867.089844" xlink:href="#DejaVuSans-65"/>
                        <use x="928.613281" xlink:href="#DejaVuSans-7c"/>
                        <use x="962.304688" xlink:href="#DejaVuSans-29"/>
                        <use x="1001.318359" xlink:href="#DejaVuSans-20"/>
                        <use x="1033.105469" xlink:href="#DejaVuSans-28"/>
                        <use x="1072.119141" xlink:href="#DejaVuSans-61"/>
                        <use x="1133.398438" xlink:href="#DejaVuSans-76"/>
                        <use x="1192.578125" xlink:href="#DejaVuSans-65"/>
                        <use x="1254.101562" xlink:href="#DejaVuSans-72"/>
                        <use x="1295.214844" xlink:href="#DejaVuSans-61"/>
                        <use x="1356.494141" xlink:href="#DejaVuSans-67"/>
                        <use x="1419.970703" xlink:href="#DejaVuSans-65"/>
                        <use x="1481.494141" xlink:href="#DejaVuSans-20"/>
                        <use x="1513.28125" xlink:href="#DejaVuSans-69"/>
                        <use x="1541.064453" xlink:href="#DejaVuSans-6d"/>
                        <use x="1638.476562" xlink:href="#DejaVuSans-70"/>
                        <use x="1701.953125" xlink:href="#DejaVuSans-61"/>
                        <use x="1763.232422" xlink:href="#DejaVuSans-63"/>
                        <use x="1818.212891" xlink:href="#DejaVuSans-74"/>
                        <use x="1857.421875" xlink:href="#DejaVuSans-20"/>
                        <use x="1889.208984" xlink:href="#DejaVuSans-6f"/>
                        <use x="1950.390625" xlink:href="#DejaVuSans-6e"/>
                        <use x="2013.769531" xlink:href="#DejaVuSans-20"/>
                        <use x="2045.556641" xlink:href="#DejaVuSans-6d"/>
                        <use x="2142.96875" xlink:href="#DejaVuSans-6f"/>
                        <use x="2204.150391" xlink:href="#DejaVuSans-64"/>
                        <use x="2267.626953" xlink:href="#DejaVuSans-65"/>
                        <use x="2329.150391" xlink:href="#DejaVuSans-6c"/>
                        <use x="2356.933594" xlink:href="#DejaVuSans-20"/>
                        <use x="2388.720703" xlink:href="#DejaVuSans-6f"/>
                        <use x="2449.902344" xlink:href="#DejaVuSans-75"/>
                        <use x="2513.28125" xlink:href="#DejaVuSans-74"/>
                        <use x="2552.490234" xlink:href="#DejaVuSans-70"/>
                        <use x="2615.966797" xlink:href="#DejaVuSans-75"/>
                        <use x="2679.345703" xlink:href="#DejaVuSans-74"/>
                        <use x="2718.554688" xlink:href="#DejaVuSans-20"/>
                        <use x="2750.341797" xlink:href="#DejaVuSans-6d"/>
                        <use x="2847.753906" xlink:href="#DejaVuSans-61"/>
                        <use x="2909.033203" xlink:href="#DejaVuSans-67"/>
                        <use x="2972.509766" xlink:href="#DejaVuSans-6e"/>
                        <use x="3035.888672" xlink:href="#DejaVuSans-69"/>
                        <use x="3063.671875" xlink:href="#DejaVuSans-74"/>
                        <use x="3102.880859" xlink:href="#DejaVuSans-75"/>
                        <use x="3166.259766" xlink:href="#DejaVuSans-64"/>
                        <use x="3229.736328" xlink:href="#DejaVuSans-65"/>
                        <use x="3291.259766" xlink:href="#DejaVuSans-29"/>
                    </g>
                </g>
            </g>
            <g id="matplotlib.axis_2">
                <g id="ytick_1">
                    <g id="text_7">
                        <!-- 切片流量 -->
                        <g style="fill:#333333;" transform="translate(47.2 196.551438)scale(0.1 -0.1)">
                            <defs>
                                <path d="M 4200 125
Q 4875 125 5037 187
Q 5200 250 5225 525
L 5400 4175
L 4250 4175
Q 4275 2875 4075 1987
Q 3875 1100 3500 575
Q 3125 50 2425 -575
Q 2275 -375 1900 -250
Q 2550 200 2937 675
Q 3325 1150 3550 1925
Q 3775 2700 3750 4175
Q 3200 4175 2700 4150
L 2700 4600
Q 3175 4575 3625 4575
L 5900 4575
Q 5875 4200 5850 3700
L 5700 325
Q 5625 -250 5312 -337
Q 5000 -425 4450 -525
Q 4400 -200 4200 125
z
M 1175 4275
Q 1175 4625 1150 5000
L 1650 5000
Q 1625 4625 1625 4300
L 1625 3275
Q 2150 3350 2700 3425
Q 2725 3150 2750 2975
Q 2325 2925 1625 2850
L 1625 1050
Q 2325 1475 2650 1750
Q 2725 1550 2875 1300
Q 2325 975 1225 200
Q 1075 500 925 650
Q 1175 850 1175 1125
L 1175 2775
Q 675 2725 325 2675
Q 300 2975 275 3150
Q 650 3175 1175 3225
L 1175 4275
z
" id="SimHei-5207" transform="scale(0.015625)"/>
                                <path d="M 1900 5050
Q 1850 4700 1850 3450
L 3825 3450
Q 3825 4850 3800 5225
L 4375 5225
Q 4350 4850 4350 3450
Q 5300 3450 5850 3475
L 5850 3025
Q 5300 3050 5050 3050
L 1850 3050
Q 1850 2575 1825 2050
L 4875 2050
Q 4850 1475 4850 750
Q 4850 25 4875 -600
L 4325 -600
Q 4350 0 4350 1625
L 1775 1625
Q 1700 1100 1450 450
Q 1200 -200 875 -600
Q 750 -400 350 -300
Q 775 200 987 775
Q 1200 1350 1275 2012
Q 1350 2675 1350 3425
Q 1350 4175 1325 5100
Q 1575 5075 1900 5050
z
" id="SimHei-7247" transform="scale(0.015625)"/>
                                <path d="M 3725 5250
Q 3975 4875 4225 4450
L 5025 4450
Q 5425 4450 5925 4475
L 5925 4025
Q 5325 4050 5025 4050
L 3425 4050
Q 3625 3900 3775 3825
Q 3650 3725 3450 3475
Q 3250 3225 2850 2775
Q 3750 2800 4775 2850
Q 4525 3150 4275 3375
Q 4525 3550 4625 3675
Q 5325 2950 5800 2375
Q 5575 2200 5400 2050
Q 5200 2325 5050 2525
Q 4500 2475 3562 2412
Q 2625 2350 2300 2250
Q 2225 2475 2075 2675
Q 2325 2750 2675 3175
Q 3025 3600 3250 4050
L 2975 4050
Q 2525 4050 2050 4000
L 2050 4475
Q 2525 4450 2975 4450
L 3675 4450
Q 3475 4800 3325 5000
Q 3575 5125 3725 5250
z
M 5025 2025
Q 5000 1700 5000 1375
L 5000 150
Q 5000 -75 5225 -75
L 5475 -75
Q 5675 -75 5700 500
Q 5900 350 6200 275
Q 6050 -350 5887 -425
Q 5725 -500 5500 -500
L 5025 -500
Q 4550 -500 4550 -25
L 4550 1425
Q 4550 1725 4525 2025
L 5025 2025
z
M 3125 1975
Q 3075 1725 3037 1212
Q 3000 700 2812 225
Q 2625 -250 1950 -700
Q 1775 -475 1575 -325
Q 2075 -100 2312 287
Q 2550 675 2575 1162
Q 2600 1650 2575 2025
Q 2825 1975 3125 1975
z
M 4000 2025
Q 3975 1875 3975 1400
L 3975 300
Q 3975 -25 4000 -500
L 3475 -500
Q 3500 -50 3500 300
L 3500 1400
Q 3500 1825 3475 2025
L 4000 2025
z
M 1900 1625
Q 1650 1200 1350 562
Q 1050 -75 850 -425
Q 625 -250 325 -125
Q 575 175 900 750
Q 1225 1325 1450 1950
Q 1650 1775 1900 1625
z
M 625 3450
Q 1200 3100 1725 2725
Q 1525 2525 1375 2275
Q 925 2700 325 3000
Q 475 3200 625 3450
z
M 925 4975
Q 1500 4625 1900 4300
Q 1725 4075 1550 3875
Q 1150 4275 625 4575
Q 800 4800 925 4975
z
" id="SimHei-6d41" transform="scale(0.015625)"/>
                                <path d="M 5250 2500
Q 5225 2200 5225 1700
Q 5225 1225 5250 950
L 3425 950
L 3425 625
L 4575 625
Q 5000 625 5375 650
L 5375 275
Q 5025 300 4575 300
L 3425 300
L 3425 -75
L 5125 -75
Q 5525 -75 5925 -50
L 5925 -425
Q 5525 -400 5125 -400
L 1275 -400
Q 900 -400 475 -425
L 475 -50
Q 925 -50 1275 -75
L 2975 -75
L 2975 300
L 1725 300
Q 1350 300 975 250
L 975 650
Q 1375 625 1725 625
L 2975 625
L 2975 950
L 1150 950
Q 1175 1375 1175 1775
Q 1175 2175 1150 2500
L 5250 2500
z
M 5200 4950
Q 5175 4575 5175 4250
Q 5175 3925 5200 3400
L 1200 3400
Q 1225 3925 1225 4250
Q 1225 4575 1200 4950
L 5200 4950
z
M 4900 3100
Q 5500 3125 6000 3150
L 6000 2750
Q 5500 2775 4925 2775
L 1650 2775
Q 975 2775 325 2750
L 325 3150
Q 975 3125 1650 3100
L 4900 3100
z
M 4725 3700
L 4725 4025
L 1675 4025
L 1675 3700
L 4725 3700
z
M 4725 4350
L 4725 4650
L 1675 4650
L 1675 4350
L 4725 4350
z
M 4750 1875
L 4750 2175
L 3425 2175
L 3425 1875
L 4750 1875
z
M 2975 1875
L 2975 2175
L 1650 2175
L 1650 1875
L 2975 1875
z
M 2975 1275
L 2975 1550
L 1650 1550
L 1650 1275
L 2975 1275
z
M 4750 1275
L 4750 1550
L 3425 1550
L 3425 1275
L 4750 1275
z
" id="SimHei-91cf" transform="scale(0.015625)"/>
                            </defs>
                            <use xlink:href="#SimHei-5207"/>
                            <use x="100" xlink:href="#SimHei-7247"/>
                            <use x="200" xlink:href="#SimHei-6d41"/>
                            <use x="300" xlink:href="#SimHei-91cf"/>
                        </g>
                    </g>
                </g>
                <g id="ytick_2">
                    <g id="text_8">
                        <!-- 切前润叶入口水分 -->
                        <g style="fill:#333333;" transform="translate(7.2 165.7025)scale(0.1 -0.1)">
                            <defs>
                                <path d="M 2075 -100
Q 2400 -100 2537 -87
Q 2675 -75 2675 100
L 2675 875
L 1325 875
L 1325 -650
L 800 -650
Q 850 -200 850 350
L 850 2350
Q 850 2850 825 3300
L 3175 3300
Q 3150 2875 3150 2375
L 3150 -150
Q 3150 -400 2950 -475
Q 2750 -550 2275 -625
Q 2200 -350 2075 -100
z
M 4950 5075
Q 4825 4975 4687 4750
Q 4550 4525 4375 4225
L 5400 4225
Q 5750 4225 6175 4250
L 6175 3775
Q 5775 3825 5300 3825
L 1350 3825
Q 700 3825 250 3775
L 250 4250
Q 775 4225 1350 4225
L 3875 4225
Q 4300 5025 4350 5300
Q 4625 5150 4950 5075
z
M 4375 -75
Q 4825 -100 4937 -75
Q 5050 -50 5050 150
L 5050 2750
Q 5050 3050 5025 3400
L 5550 3400
Q 5525 3075 5525 2750
L 5525 -25
Q 5525 -350 5362 -450
Q 5200 -550 4600 -600
Q 4550 -275 4375 -75
z
M 3775 575
Q 3800 950 3800 1225
L 3800 2375
Q 3800 2775 3775 3075
L 4300 3075
Q 4275 2775 4275 2375
L 4275 1250
Q 4275 875 4300 575
L 3775 575
z
M 2675 2250
L 2675 2925
L 1325 2925
L 1325 2250
L 2675 2250
z
M 2675 1250
L 2675 1875
L 1325 1875
L 1325 1250
L 2675 1250
z
M 2225 4300
Q 2125 4575 1750 5050
Q 2025 5175 2200 5300
Q 2550 4850 2725 4550
Q 2500 4450 2225 4300
z
" id="SimHei-524d" transform="scale(0.015625)"/>
                                <path d="M 6025 4725
Q 6000 4325 6000 3750
L 6000 -125
Q 6000 -400 5800 -512
Q 5600 -625 5050 -700
Q 4975 -450 4750 -125
Q 5225 -150 5375 -112
Q 5525 -75 5525 150
L 5525 4300
L 4500 4300
Q 4175 4300 3750 4275
L 3750 4750
Q 4125 4725 4500 4725
L 6025 4725
z
M 4350 3575
Q 4800 3575 5075 3600
L 5075 3150
Q 4750 3175 4250 3175
L 4250 2300
Q 4625 2300 4950 2325
L 4950 1875
Q 4650 1925 4250 1925
L 4250 1000
Q 4925 1000 5175 1025
L 5175 600
Q 4925 625 4400 625
L 3575 625
Q 3100 625 2825 600
L 2825 1025
Q 3175 1000 3800 1000
L 3800 1925
Q 3350 1925 3050 1875
L 3050 2325
Q 3325 2300 3800 2300
L 3800 3175
Q 3375 3175 2950 3150
L 2950 3600
Q 3375 3575 3800 3575
L 4350 3575
z
M 2575 3850
Q 2550 3425 2550 3025
L 2550 175
Q 2550 -200 2575 -700
L 2050 -700
Q 2075 -175 2075 150
L 2075 3025
Q 2075 3475 2050 3850
L 2575 3850
z
M 1675 1500
Q 1525 1275 1250 500
Q 975 -275 850 -625
Q 600 -425 250 -300
Q 500 -25 812 725
Q 1125 1475 1200 1800
Q 1425 1625 1675 1500
z
M 525 3600
Q 1125 3200 1625 2825
Q 1400 2600 1250 2400
Q 800 2825 225 3225
Q 400 3375 525 3600
z
M 975 5025
Q 1475 4625 1800 4250
Q 1600 4125 1350 3925
Q 1025 4375 600 4750
Q 850 4875 975 5025
z
M 2850 4100
Q 2600 4625 2325 5000
Q 2525 5100 2750 5250
Q 3050 4825 3300 4375
Q 3050 4200 2850 4100
z
" id="SimHei-6da6" transform="scale(0.015625)"/>
                                <path d="M 2350 4625
Q 2325 4100 2325 3600
L 2325 1475
Q 2325 950 2350 500
L 1825 500
L 1825 1150
L 875 1150
L 875 150
L 350 150
Q 375 650 375 1125
L 375 3600
Q 375 3950 350 4625
L 2350 4625
z
M 4150 3200
L 4150 4450
Q 4150 4950 4125 5150
L 4725 5150
Q 4675 4950 4675 4450
L 4675 3200
L 5575 3200
Q 6050 3200 6175 3225
L 6175 2725
Q 6025 2750 5600 2750
L 4675 2750
L 4675 275
Q 4675 -275 4700 -550
L 4125 -550
Q 4150 -275 4150 250
L 4150 2750
L 3275 2750
Q 2775 2750 2600 2725
L 2600 3225
Q 2775 3200 3250 3200
L 4150 3200
z
M 1825 1600
L 1825 4175
L 875 4175
L 875 1600
L 1825 1600
z
" id="SimHei-53f6" transform="scale(0.015625)"/>
                                <path d="M 5650 -375
Q 5050 25 4500 650
Q 3950 1275 3275 3050
Q 2575 975 675 -475
Q 575 -225 225 50
Q 1850 825 2975 3525
Q 2900 3725 2525 4125
Q 2150 4525 1750 4675
Q 2025 4900 2175 5125
Q 2800 4650 3175 4225
Q 3550 3800 4125 2375
Q 4700 950 6125 250
Q 5775 0 5650 -375
z
" id="SimHei-5165" transform="scale(0.015625)"/>
                                <path d="M 5425 4300
Q 5400 3775 5400 3175
L 5400 550
Q 5400 100 5425 -425
L 4900 -425
L 4900 100
L 1525 100
L 1525 -425
L 1000 -425
Q 1025 0 1025 550
L 1025 3175
Q 1025 3775 1000 4300
L 5425 4300
z
M 4900 525
L 4900 3875
L 1525 3875
L 1525 525
L 4900 525
z
" id="SimHei-53e3" transform="scale(0.015625)"/>
                                <path d="M 3450 5175
Q 3450 4800 3437 4500
Q 3425 4200 3487 3762
Q 3550 3325 3950 2725
Q 4975 3575 5175 4050
Q 5450 3800 5675 3575
Q 5350 3350 5037 3075
Q 4725 2800 4175 2325
Q 4375 1900 4900 1375
Q 5425 850 6175 625
Q 5750 425 5675 125
Q 4725 700 4212 1400
Q 3700 2100 3425 2800
L 3425 25
Q 3450 -325 3162 -475
Q 2875 -625 2400 -675
Q 2375 -400 2175 -75
Q 2575 -150 2750 -100
Q 2925 -50 2925 225
L 2925 4175
Q 2925 4800 2875 5175
L 3450 5175
z
M 2550 3575
Q 2425 2900 2237 2362
Q 2050 1825 1737 1300
Q 1425 775 750 100
Q 575 325 225 450
Q 925 950 1337 1600
Q 1750 2250 1950 3125
L 1275 3125
Q 900 3125 425 3075
L 425 3600
Q 875 3575 1250 3575
L 2550 3575
z
" id="SimHei-6c34" transform="scale(0.015625)"/>
                                <path d="M 1000 -650
Q 825 -375 575 -225
Q 975 -75 1300 137
Q 1625 350 1875 662
Q 2125 975 2250 1350
Q 2375 1725 2425 2275
Q 1850 2275 1500 2250
L 1500 2775
Q 1900 2750 2525 2750
L 5025 2750
Q 4975 2375 4950 2100
L 4750 250
Q 4700 -200 4350 -350
Q 4000 -500 3575 -525
Q 3550 -275 3325 50
Q 3850 25 4037 87
Q 4225 150 4275 525
L 4450 2275
L 2950 2275
Q 2875 1625 2737 1187
Q 2600 750 2350 425
Q 2100 100 1750 -175
Q 1400 -450 1000 -650
z
M 3950 5175
Q 4125 4650 4662 3975
Q 5200 3300 6175 2800
Q 5975 2625 5775 2275
Q 5325 2600 4987 2887
Q 4650 3175 4425 3425
Q 4200 3675 3925 4137
Q 3650 4600 3475 5000
Q 3750 5075 3950 5175
z
M 2700 4825
Q 2475 4425 2325 4125
Q 2175 3825 2025 3587
Q 1875 3350 1575 2950
Q 1275 2550 850 2125
Q 625 2350 400 2475
Q 900 2925 1187 3300
Q 1475 3675 1737 4112
Q 2000 4550 2200 5075
Q 2400 4925 2700 4825
z
" id="SimHei-5206" transform="scale(0.015625)"/>
                            </defs>
                            <use xlink:href="#SimHei-5207"/>
                            <use x="100" xlink:href="#SimHei-524d"/>
                            <use x="200" xlink:href="#SimHei-6da6"/>
                            <use x="300" xlink:href="#SimHei-53f6"/>
                            <use x="400" xlink:href="#SimHei-5165"/>
                            <use x="500" xlink:href="#SimHei-53e3"/>
                            <use x="600" xlink:href="#SimHei-6c34"/>
                            <use x="700" xlink:href="#SimHei-5206"/>
                        </g>
                    </g>
                </g>
                <g id="ytick_3">
                    <g id="text_9">
                        <!-- 烟叶流量 -->
                        <g style="fill:#333333;" transform="translate(47.2 134.775438)scale(0.1 -0.1)">
                            <defs>
                                <path d="M 5850 4950
Q 5825 4475 5825 3950
L 5825 650
Q 5825 125 5850 -500
L 5375 -500
L 5375 50
L 3125 50
L 3125 -500
L 2650 -500
Q 2675 0 2675 650
L 2675 3900
Q 2675 4475 2650 4950
L 5850 4950
z
M 5375 425
L 5375 4550
L 3125 4550
L 3125 425
L 5375 425
z
M 1775 5050
Q 1725 4225 1725 3375
Q 1975 3650 2200 3975
Q 2350 3775 2550 3575
Q 2150 3275 1725 2800
Q 1700 2375 1650 1750
Q 2150 1175 2550 750
Q 2375 600 2175 400
Q 1925 850 1550 1250
Q 1425 675 1237 275
Q 1050 -125 825 -475
Q 575 -275 375 -175
Q 700 200 900 675
Q 1100 1150 1200 1775
Q 1300 2400 1300 3225
Q 1300 4075 1275 5125
Q 1500 5075 1775 5050
z
M 4500 4275
Q 4450 3900 4450 3275
Q 4850 3275 5175 3300
L 5175 2875
Q 4850 2900 4450 2900
L 4400 2575
Q 5000 1775 5300 1250
Q 5075 1125 4900 1025
Q 4625 1550 4275 2125
Q 4075 1475 3700 850
Q 3525 950 3200 1050
Q 3500 1400 3712 1887
Q 3925 2375 3975 2900
Q 3650 2900 3275 2875
L 3275 3300
Q 3650 3275 4000 3275
Q 4000 3850 3975 4350
Q 4225 4300 4500 4275
z
M 975 3700
Q 850 2450 825 2000
Q 600 2025 400 2025
Q 450 2525 500 3750
Q 725 3725 975 3700
z
" id="SimHei-70df" transform="scale(0.015625)"/>
                            </defs>
                            <use xlink:href="#SimHei-70df"/>
                            <use x="100" xlink:href="#SimHei-53f6"/>
                            <use x="200" xlink:href="#SimHei-6d41"/>
                            <use x="300" xlink:href="#SimHei-91cf"/>
                        </g>
                    </g>
                </g>
                <g id="ytick_4">
                    <g id="text_10">
                        <!-- 水流量 -->
                        <g style="fill:#333333;" transform="translate(57.2 103.887438)scale(0.1 -0.1)">
                            <use xlink:href="#SimHei-6c34"/>
                            <use x="100" xlink:href="#SimHei-6d41"/>
                            <use x="200" xlink:href="#SimHei-91cf"/>
                        </g>
                    </g>
                </g>
                <g id="ytick_5">
                    <g id="text_11">
                        <!-- 加水累积量 -->
                        <g style="fill:#333333;" transform="translate(37.2 72.921313)scale(0.1 -0.1)">
                            <defs>
                                <path d="M 5700 4150
Q 5675 3625 5675 3100
L 5675 900
Q 5675 300 5700 -350
L 5225 -350
L 5225 225
L 4150 225
L 4150 -475
L 3675 -475
Q 3700 25 3700 550
L 3700 3100
Q 3700 3600 3675 4150
L 5700 4150
z
M 3125 225
Q 3050 -250 2725 -337
Q 2400 -425 2025 -450
Q 2025 -225 1875 125
Q 2300 100 2475 137
Q 2650 175 2675 425
L 2850 3425
L 1975 3425
Q 1925 2450 1812 1875
Q 1700 1300 1562 875
Q 1425 450 1187 37
Q 950 -375 775 -600
Q 600 -400 275 -250
Q 750 225 987 787
Q 1225 1350 1312 1837
Q 1400 2325 1425 2637
Q 1450 2950 1475 3425
L 1125 3425
Q 850 3425 550 3400
L 550 3900
Q 825 3850 1175 3850
L 1500 3850
Q 1525 4375 1525 4475
Q 1525 4600 1500 5075
Q 1775 5050 2125 5025
Q 2075 4825 2050 4600
Q 2025 4375 2000 3850
L 3350 3850
Q 3325 3650 3325 3425
L 3125 225
z
M 5225 725
L 5225 3700
L 4150 3700
L 4150 725
L 5225 725
z
" id="SimHei-52a0" transform="scale(0.015625)"/>
                                <path d="M 5475 5000
Q 5450 4600 5450 3975
Q 5450 3350 5475 2950
L 4675 2950
Q 4850 2775 5075 2600
Q 4800 2525 4237 2275
Q 3675 2025 3262 1837
Q 2850 1650 2400 1425
Q 3850 1525 4650 1575
Q 4425 1725 4200 1850
Q 4375 2000 4500 2175
Q 5125 1800 5900 1300
Q 5750 1125 5575 900
Q 5375 1075 5100 1250
Q 4250 1175 3475 1125
L 3475 50
Q 3475 -350 3212 -462
Q 2950 -575 2600 -600
Q 2575 -375 2375 -50
Q 2800 -75 2900 -25
Q 3000 25 3000 125
L 3000 1075
Q 2400 1050 1987 1012
Q 1575 975 850 875
Q 775 1125 700 1350
Q 1150 1400 1575 1512
Q 2000 1625 3025 2125
Q 1775 2025 1250 1925
Q 1200 2200 1100 2375
Q 1325 2375 1737 2537
Q 2150 2700 2475 2950
L 950 2950
Q 975 3375 975 3975
Q 975 4600 950 5000
L 5475 5000
z
M 2425 525
Q 2200 400 1762 137
Q 1325 -125 850 -425
Q 700 -225 500 -25
Q 850 125 1250 362
Q 1650 600 2025 900
Q 2150 725 2425 525
z
M 2975 4100
L 2975 4650
L 1450 4650
L 1450 4100
L 2975 4100
z
M 4975 4100
L 4975 4650
L 3450 4650
L 3450 4100
L 4975 4100
z
M 4275 850
Q 4750 650 5050 500
L 5850 100
Q 5675 -125 5575 -375
Q 5150 -100 4775 100
Q 4400 300 4050 450
Q 4200 675 4275 850
z
M 2975 3275
L 2975 3750
L 1450 3750
L 1450 3275
L 2975 3275
z
M 4975 3275
L 4975 3750
L 3450 3750
L 3450 3275
L 4975 3275
z
M 3700 2475
Q 4200 2700 4575 2950
L 3225 2950
Q 2900 2750 2300 2425
Q 3075 2450 3700 2475
z
" id="SimHei-7d2f" transform="scale(0.015625)"/>
                                <path d="M 5675 4700
Q 5650 4275 5650 3575
L 5650 2750
Q 5650 2225 5675 1750
L 3100 1750
Q 3125 2225 3125 2750
L 3125 3600
Q 3125 4275 3100 4700
L 5675 4700
z
M 2850 4625
Q 2600 4575 2400 4525
Q 2200 4475 1925 4425
L 1925 3275
Q 2525 3275 2875 3300
L 2875 2825
Q 2525 2850 1925 2850
L 1925 2075
Q 2125 2225 2250 2350
Q 2650 1775 2875 1450
Q 2750 1375 2450 1150
Q 2250 1575 1925 2000
L 1925 300
Q 1925 -75 1950 -675
L 1425 -675
Q 1475 -75 1475 300
L 1475 1925
Q 1275 1475 1125 1225
Q 975 975 650 525
Q 450 700 200 825
Q 575 1200 900 1750
Q 1225 2300 1375 2850
Q 1025 2850 300 2825
L 300 3300
Q 1025 3275 1475 3275
L 1475 4325
Q 975 4250 525 4175
Q 450 4400 350 4625
Q 675 4600 1462 4750
Q 2250 4900 2550 5075
Q 2725 4775 2850 4625
z
M 5175 2175
L 5175 4300
L 3575 4300
L 3575 2175
L 5175 2175
z
M 4025 1075
Q 3875 850 3512 350
Q 3150 -150 2700 -650
Q 2525 -475 2300 -300
Q 2625 -50 2950 375
Q 3275 800 3575 1400
Q 3825 1200 4025 1075
z
M 5050 1325
Q 5275 1025 5587 625
Q 5900 225 6200 -225
Q 5900 -400 5725 -550
Q 5550 -225 5200 287
Q 4850 800 4650 1025
Q 4850 1150 5050 1325
z
" id="SimHei-79ef" transform="scale(0.015625)"/>
                            </defs>
                            <use xlink:href="#SimHei-52a0"/>
                            <use x="100" xlink:href="#SimHei-6c34"/>
                            <use x="200" xlink:href="#SimHei-7d2f"/>
                            <use x="300" xlink:href="#SimHei-79ef"/>
                            <use x="400" xlink:href="#SimHei-91cf"/>
                        </g>
                    </g>
                </g>
                <g id="ytick_6">
                    <g id="text_12">
                        <!-- 水流量调节量 -->
                        <g style="fill:#333333;" transform="translate(27.2 42.111438)scale(0.1 -0.1)">
                            <defs>
                                <path d="M 5950 200
Q 5975 -300 5700 -437
Q 5425 -575 4900 -650
Q 4825 -350 4700 -50
Q 5200 -75 5337 0
Q 5475 75 5500 300
L 5500 4525
L 3075 4525
L 3075 2275
Q 3075 1225 2900 612
Q 2725 0 2275 -650
Q 2125 -450 1825 -300
Q 2150 75 2312 437
Q 2475 800 2550 1212
Q 2625 1625 2625 2925
Q 2625 4250 2600 4900
L 5975 4900
Q 5950 4525 5950 3900
L 5950 200
z
M 5125 1825
Q 5100 1475 5100 1175
Q 5100 875 5125 425
L 3425 425
Q 3450 875 3450 1175
Q 3450 1475 3425 1825
L 5125 1825
z
M 2125 1600
Q 2225 1375 2400 1200
Q 2075 875 1875 650
Q 1675 425 1325 50
Q 1150 250 1000 400
Q 1175 600 1175 825
L 1175 2825
L 950 2825
Q 775 2825 300 2800
L 300 3250
Q 775 3225 950 3225
L 1650 3225
Q 1625 2775 1625 2225
L 1625 1050
Q 1750 1150 2125 1600
z
M 4050 3675
Q 4050 3975 4025 4300
L 4500 4300
Q 4475 4000 4475 3675
Q 4750 3675 5125 3700
L 5125 3275
Q 4750 3300 4475 3300
L 4475 2675
Q 4925 2675 5225 2700
L 5225 2250
Q 4825 2275 4300 2275
Q 3775 2275 3350 2250
L 3350 2700
Q 3775 2675 4050 2675
L 4050 3300
Q 3725 3300 3375 3275
L 3375 3700
Q 3750 3675 4050 3675
z
M 4675 775
L 4675 1475
L 3875 1475
L 3875 775
L 4675 775
z
M 1250 5025
Q 1525 4700 1975 4100
Q 1750 3975 1575 3775
Q 1075 4525 875 4725
Q 1075 4850 1250 5025
z
" id="SimHei-8c03" transform="scale(0.015625)"/>
                                <path d="M 4200 200
Q 4150 500 3950 800
Q 4450 800 4712 850
Q 4975 900 5000 1150
L 5050 2500
L 2925 2500
L 2925 325
Q 2925 -125 2950 -600
L 2375 -600
Q 2425 -150 2425 325
L 2425 2500
L 1875 2500
Q 1050 2500 550 2475
L 550 2950
Q 1075 2925 1625 2925
L 5625 2925
Q 5550 1875 5525 1225
Q 5500 575 5150 412
Q 4800 250 4200 200
z
M 2475 3950
Q 2475 3500 2500 3175
L 1950 3175
Q 1975 3550 1975 3950
L 1125 3950
Q 775 3950 350 3900
L 350 4400
Q 775 4375 1125 4375
L 1975 4375
Q 1975 4850 1950 5175
L 2500 5175
Q 2475 4850 2475 4375
L 3800 4375
Q 3800 4875 3775 5175
L 4350 5175
Q 4325 4875 4325 4375
L 5125 4375
Q 5600 4375 6000 4400
L 6000 3925
Q 5600 3950 5125 3950
L 4325 3950
Q 4325 3550 4350 3175
L 3775 3175
Q 3800 3575 3800 3950
L 2475 3950
z
" id="SimHei-8282" transform="scale(0.015625)"/>
                            </defs>
                            <use xlink:href="#SimHei-6c34"/>
                            <use x="100" xlink:href="#SimHei-6d41"/>
                            <use x="200" xlink:href="#SimHei-91cf"/>
                            <use x="300" xlink:href="#SimHei-8c03"/>
                            <use x="400" xlink:href="#SimHei-8282"/>
                            <use x="500" xlink:href="#SimHei-91cf"/>
                        </g>
                    </g>
                </g>
            </g>
            <g id="patch_9">
                <path d="M 94.2 223.416
L 540.6 223.416
" style="fill:none;stroke:#000000;stroke-linecap:square;stroke-linejoin:miter;stroke-width:0.8;"/>
            </g>
        </g>
    </g>
    <defs>
        <clipPath id="p919470fa06">
            <rect height="216.216" width="446.4" x="94.2" y="7.2"/>
        </clipPath>
    </defs>
</svg>
